0
SECTION
2
HEADER
9
$INSUNITS
70
4
9
$ACADVER
1
AC1014
9
$HANDSEED
5
FFFF
0
ENDSEC
0
SECTION
2
TABLES
0
TABLE
2
VPORT
5
8
100
AcDbSymbolTable
0
ENDTAB
0
TABLE
2
LTYPE
5
5
100
AcDbSymbolTable
0
LTYPE
5
14
100
AcDbSymbolTableRecord
100
AcDbLinetypeTableRecord
2
BYBLOCK
70
0
0
LTYPE
5
15
100
AcDbSymbolTableRecord
100
AcDbLinetypeTableRecord
2
BYLAYER
70
0
0
LTYPE
5
16
100
AcDbSymbolTableRecord
100
AcDbLinetypeTableRecord
2
DASHED
70
0
3
Dashed __ __ __ __ __ __ __ __ __ __ __ __ __ _
72
65
73
2
40
0.75
49
0.5
74
0
49
-0.25
74
0
0
ENDTAB
0
TABLE
2
LAYER
5
2
100
AcDbSymbolTable
70
2
0
LAYER
5
50
100
AcDbSymbolTableRecord
100
AcDbLayerTableRecord
2
0
70
0
62
7
6
CONTINUOUS
0
ENDTAB
0
TABLE
2
STYLE
5
3
100
AcDbSymbolTable
70
1
0
STYLE
5
11
100
AcDbSymbolTableRecord
100
AcDbTextStyleTableRecord
2
STANDARD
70
0
0
ENDTAB
0
TABLE
2
VIEW
5
6
100
AcDbSymbolTable
70
0
0
ENDTAB
0
TABLE
2
UCS
5
7
100
AcDbSymbolTable
70
0
0
ENDTAB
0
TABLE
2
APPID
5
9
100
AcDbSymbolTable
70
2
0
APPID
5
12
100
AcDbSymbolTableRecord
100
AcDbRegAppTableRecord
2
ACAD
70
0
0
ENDTAB
0
TABLE
2
DIMSTYLE
5
A
100
AcDbSymbolTable
70
1
0
ENDTAB
0
TABLE
2
BLOCK_RECORD
5
1
100
AcDbSymbolTable
70
1
0
BLOCK_RECORD
5
1F
100
AcDbSymbolTableRecord
100
AcDbBlockTableRecord
2
*MODEL_SPACE
0
BLOCK_RECORD
5
1B
100
AcDbSymbolTableRecord
100
AcDbBlockTableRecord
2
*PAPER_SPACE
0
ENDTAB
0
ENDSEC
0
SECTION
2
BLOCKS
0
BLOCK
5
20
100
AcDbEntity
100
AcDbBlockBegin
2
*MODEL_SPACE
0
ENDBLK
5
21
100
AcDbEntity
100
AcDbBlockEnd
0
BLOCK
5
1C
100
AcDbEntity
100
AcDbBlockBegin
2
*PAPER_SPACE
0
ENDBLK
5
1D
100
AcDbEntity
100
AcDbBlockEnd
0
ENDSEC
0
SECTION
2
ENTITIES
0
POINT
5
100
100
AcDbEntity
8
0
100
AcDbPoint
10
0
20
0
30
0
0
POINT
5
101
100
AcDbEntity
8
0
100
AcDbPoint
10
0
20
0
30
0
0
LWPOLYLINE
5
102
100
AcDbEntity
8
0
100
AcDbPolyline
90
19
70
1
43
0.0
10
12.000000000000002
20
104.00000000000003
10
0
20
104
10
0
20
120
10
120
20
120
10
104
20
120
10
104
20
108
42
0.41421356237309243
10
108
20
104
10
120
20
104
10
120
20
120
10
120
20
0
10
120
20
16
10
108
20
16.000000000000011
42
0.41421356237309276
10
104
20
12.000000000000002
10
104
20
0
10
120
20
0
10
0
20
0
10
0
20
120
10
16
20
120
10
15.999999999999993
20
108
42
-0.41421356237309276
0
LINE
5
103
100
AcDbEntity
8
0
100
AcDbLine
10
0
20
104
30
0
11
-8
21
104
31
0
0
LWPOLYLINE
5
104
100
AcDbEntity
8
0
100
AcDbPolyline
90
5
70
1
43
0.0
10
0
20
0
10
16
20
0
10
16
20
12.000000000000002
42
0.41421356237309492
10
12.000000000000002
20
16.000000000000004
10
0
20
16
0
LWPOLYLINE
5
105
100
AcDbEntity
8
0
100
AcDbPolyline
90
10
70
1
43
0.0
10
2.0000000000000107
20
128
42
0.41421356237309559
10
-8.0000000000000089
20
118
10
-8
20
-4.2999999999999972
10
-8.0000000000000089
20
118
42
-0.41421356237309559
10
2.0000000000000107
20
128
10
118
20
128
42
-0.41421356237309553
10
128
20
117.99999999999999
10
128
20
-4.2999999999999998
10
128
20
117.99999999999999
42
0.41421356237309553
10
118
20
128
0
CIRCLE
5
106
100
AcDbEntity
8
0
100
AcDbCircle
10
112.69999999999999
20
7.2999999999999998
30
0
40
2.3000000000000003
210
0
220
0
230
1
0
LINE
5
107
100
AcDbEntity
8
0
100
AcDbLine
10
95
20
-4.2999999999999989
30
0
11
85
21
-4.2999999999999989
31
0
0
LINE
5
108
100
AcDbEntity
8
0
100
AcDbLine
10
15
20
-8
30
0
11
15
21
-4.2999999999999989
31
0
0
LINE
5
109
100
AcDbEntity
8
0
100
AcDbLine
10
15
20
-4.2999999999999989
30
0
11
5
21
-4.2999999999999989
31
0
0
LINE
5
110
100
AcDbEntity
8
0
100
AcDbLine
10
5
20
-4.2999999999999989
30
0
11
5
21
-8
31
0
0
LINE
5
111
100
AcDbEntity
8
0
100
AcDbLine
10
125
20
-4.2999999999999998
30
0
11
125
21
-8
31
0
0
LINE
5
112
100
AcDbEntity
8
0
100
AcDbLine
10
75
20
-8
30
0
11
75
21
-4.2999999999999989
31
0
0
LINE
5
113
100
AcDbEntity
8
0
100
AcDbLine
10
115
20
-4.2999999999999989
30
0
11
105
21
-4.2999999999999989
31
0
0
LINE
5
114
100
AcDbEntity
8
0
100
AcDbLine
10
25
20
-4.2999999999999989
30
0
11
25
21
-8
31
0
0
LINE
5
115
100
AcDbEntity
8
0
100
AcDbLine
10
105
20
-4.2999999999999989
30
0
11
105
21
-8
31
0
0
LINE
5
116
100
AcDbEntity
8
0
100
AcDbLine
10
-5
20
-4.2999999999999998
30
0
11
-8
21
-4.2999999999999998
31
0
0
LINE
5
117
100
AcDbEntity
8
0
100
AcDbLine
10
55
20
-4.2999999999999989
30
0
11
45
21
-4.2999999999999989
31
0
0
LINE
5
118
100
AcDbEntity
8
0
100
AcDbLine
10
128
20
-4.2999999999999998
30
0
11
125
21
-4.2999999999999998
31
0
0
LINE
5
119
100
AcDbEntity
8
0
100
AcDbLine
10
55
20
-8
30
0
11
55
21
-4.2999999999999989
31
0
0
CIRCLE
5
120
100
AcDbEntity
8
0
100
AcDbCircle
10
112.69999999999999
20
112.69999999999999
30
0
40
2.3000000000000003
210
0
220
0
230
1
0
CIRCLE
5
121
100
AcDbEntity
8
0
100
AcDbCircle
10
7.2999999999999998
20
7.2999999999999998
30
0
40
2.3000000000000003
210
0
220
0
230
1
0
LINE
5
122
100
AcDbEntity
8
0
100
AcDbLine
10
120
20
104
30
0
11
128
21
104
31
0
0
LINE
5
123
100
AcDbEntity
8
0
100
AcDbLine
10
35
20
-4.2999999999999989
30
0
11
25
21
-4.2999999999999989
31
0
0
LINE
5
124
100
AcDbEntity
8
0
100
AcDbLine
10
-5
20
-8
30
0
11
-5
21
-4.2999999999999998
31
0
0
LINE
5
125
100
AcDbEntity
8
0
100
AcDbLine
10
45
20
-4.2999999999999989
30
0
11
45
21
-8
31
0
0
LINE
5
126
100
AcDbEntity
8
0
100
AcDbLine
10
65
20
-4.2999999999999989
30
0
11
65
21
-8
31
0
0
LINE
5
127
100
AcDbEntity
8
0
100
AcDbLine
10
75
20
-4.2999999999999989
30
0
11
65
21
-4.2999999999999989
31
0
0
LINE
5
128
100
AcDbEntity
8
0
100
AcDbLine
10
95
20
-8
30
0
11
95
21
-4.2999999999999989
31
0
0
LINE
5
129
100
AcDbEntity
8
0
100
AcDbLine
10
115
20
-8
30
0
11
115
21
-4.2999999999999989
31
0
0
LINE
5
130
100
AcDbEntity
8
0
100
AcDbLine
10
35
20
-8
30
0
11
35
21
-4.2999999999999989
31
0
0
CIRCLE
5
131
100
AcDbEntity
8
0
100
AcDbCircle
10
7.2999999999999998
20
112.69999999999999
30
0
40
2.3000000000000003
210
0
220
0
230
1
0
LINE
5
132
100
AcDbEntity
8
0
100
AcDbLine
10
85
20
-4.2999999999999989
30
0
11
85
21
-8
31
0
0
LWPOLYLINE
5
133
100
AcDbEntity
8
0
100
AcDbPolyline
90
19
70
1
43
0.0
10
12.000000000000002
20
104.00000000000003
10
0
20
104
10
0
20
120
10
120
20
120
10
104
20
120
10
104
20
108
42
0.41421356237309243
10
108
20
104
10
120
20
104
10
120
20
120
10
120
20
0
10
120
20
16
10
108
20
16.000000000000011
42
0.41421356237309276
10
104
20
12.000000000000002
10
104
20
0
10
120
20
0
10
0
20
0
10
0
20
120
10
16
20
120
10
15.999999999999993
20
108
42
-0.41421356237309276
0
LINE
5
134
100
AcDbEntity
8
0
100
AcDbLine
10
0
20
104
30
0
11
-8
21
104
31
0
0
LWPOLYLINE
5
135
100
AcDbEntity
8
0
100
AcDbPolyline
90
5
70
1
43
0.0
10
0
20
0
10
16
20
0
10
16
20
12.000000000000002
42
0.41421356237309492
10
12.000000000000002
20
16.000000000000004
10
0
20
16
0
CIRCLE
5
136
100
AcDbEntity
8
0
100
AcDbCircle
10
112.69999999999999
20
7.2999999999999998
30
0
40
2.3000000000000003
210
0
220
0
230
1
0
LINE
5
137
100
AcDbEntity
8
0
100
AcDbLine
10
95
20
-4.2999999999999989
30
0
11
85
21
-4.2999999999999989
31
0
0
LINE
5
138
100
AcDbEntity
8
0
100
AcDbLine
10
15
20
-8
30
0
11
15
21
-4.2999999999999989
31
0
0
LINE
5
139
100
AcDbEntity
8
0
100
AcDbLine
10
15
20
-4.2999999999999989
30
0
11
5
21
-4.2999999999999989
31
0
0
LINE
5
140
100
AcDbEntity
8
0
100
AcDbLine
10
5
20
-4.2999999999999989
30
0
11
5
21
-8
31
0
0
LINE
5
141
100
AcDbEntity
8
0
100
AcDbLine
10
125
20
-4.2999999999999998
30
0
11
125
21
-8
31
0
0
LINE
5
142
100
AcDbEntity
8
0
100
AcDbLine
10
75
20
-8
30
0
11
75
21
-4.2999999999999989
31
0
0
LINE
5
143
100
AcDbEntity
8
0
100
AcDbLine
10
115
20
-4.2999999999999989
30
0
11
105
21
-4.2999999999999989
31
0
0
LINE
5
144
100
AcDbEntity
8
0
100
AcDbLine
10
25
20
-4.2999999999999989
30
0
11
25
21
-8
31
0
0
LINE
5
145
100
AcDbEntity
8
0
100
AcDbLine
10
105
20
-4.2999999999999989
30
0
11
105
21
-8
31
0
0
LINE
5
146
100
AcDbEntity
8
0
100
AcDbLine
10
-5
20
-4.2999999999999998
30
0
11
-8
21
-4.2999999999999998
31
0
0
LINE
5
147
100
AcDbEntity
8
0
100
AcDbLine
10
55
20
-4.2999999999999989
30
0
11
45
21
-4.2999999999999989
31
0
0
LINE
5
148
100
AcDbEntity
8
0
100
AcDbLine
10
128
20
-4.2999999999999998
30
0
11
125
21
-4.2999999999999998
31
0
0
LINE
5
149
100
AcDbEntity
8
0
100
AcDbLine
10
55
20
-8
30
0
11
55
21
-4.2999999999999989
31
0
0
CIRCLE
5
150
100
AcDbEntity
8
0
100
AcDbCircle
10
112.69999999999999
20
112.69999999999999
30
0
40
2.3000000000000003
210
0
220
0
230
1
0
CIRCLE
5
151
100
AcDbEntity
8
0
100
AcDbCircle
10
7.2999999999999998
20
7.2999999999999998
30
0
40
2.3000000000000003
210
0
220
0
230
1
0
LINE
5
152
100
AcDbEntity
8
0
100
AcDbLine
10
120
20
104
30
0
11
128
21
104
31
0
0
LINE
5
153
100
AcDbEntity
8
0
100
AcDbLine
10
35
20
-4.2999999999999989
30
0
11
25
21
-4.2999999999999989
31
0
0
LINE
5
154
100
AcDbEntity
8
0
100
AcDbLine
10
-5
20
-8
30
0
11
-5
21
-4.2999999999999998
31
0
0
LINE
5
155
100
AcDbEntity
8
0
100
AcDbLine
10
45
20
-4.2999999999999989
30
0
11
45
21
-8
31
0
0
LINE
5
156
100
AcDbEntity
8
0
100
AcDbLine
10
65
20
-4.2999999999999989
30
0
11
65
21
-8
31
0
0
LINE
5
157
100
AcDbEntity
8
0
100
AcDbLine
10
75
20
-4.2999999999999989
30
0
11
65
21
-4.2999999999999989
31
0
0
LINE
5
158
100
AcDbEntity
8
0
100
AcDbLine
10
95
20
-8
30
0
11
95
21
-4.2999999999999989
31
0
0
LINE
5
159
100
AcDbEntity
8
0
100
AcDbLine
10
115
20
-8
30
0
11
115
21
-4.2999999999999989
31
0
0
LINE
5
160
100
AcDbEntity
8
0
100
AcDbLine
10
35
20
-8
30
0
11
35
21
-4.2999999999999989
31
0
0
CIRCLE
5
161
100
AcDbEntity
8
0
100
AcDbCircle
10
7.2999999999999998
20
112.69999999999999
30
0
40
2.3000000000000003
210
0
220
0
230
1
0
LINE
5
162
100
AcDbEntity
8
0
100
AcDbLine
10
85
20
-4.2999999999999989
30
0
11
85
21
-8
31
0
0
LWPOLYLINE
5
163
100
AcDbEntity
8
0
100
AcDbPolyline
90
2
70
1
43
0.0
10
55
20
-8
10
65
20
-8
0
LWPOLYLINE
5
164
100
AcDbEntity
8
0
100
AcDbPolyline
90
2
70
1
43
0.0
10
75
20
-8
10
85
20
-8
0
LWPOLYLINE
5
165
100
AcDbEntity
8
0
100
AcDbPolyline
90
2
70
1
43
0.0
10
95
20
-8
10
105
20
-8
0
LWPOLYLINE
5
166
100
AcDbEntity
8
0
100
AcDbPolyline
90
2
70
1
43
0.0
10
115
20
-8
10
125
20
-8
0
LWPOLYLINE
5
167
100
AcDbEntity
8
0
100
AcDbPolyline
90
2
70
1
43
0.0
10
35
20
-8
10
45
20
-8
0
LWPOLYLINE
5
168
100
AcDbEntity
8
0
100
AcDbPolyline
90
2
70
1
43
0.0
10
-5
20
-8
10
5
20
-8
0
LWPOLYLINE
5
169
100
AcDbEntity
8
0
100
AcDbPolyline
90
2
70
1
43
0.0
10
15
20
-8
10
25
20
-8
0
ENDSEC
0
SECTION
2
OBJECTS
0
DICTIONARY
5
C
100
AcDbDictionary
3
ACAD_GROUP
350
D
3
ACAD_MLINESTYLE
350
17
0
DICTIONARY
5
D
100
AcDbDictionary
0
DICTIONARY
5
1A
330
C
100
AcDbDictionary
0
DICTIONARY
5
17
100
AcDbDictionary
0
ENDSEC
0
EOF
